<?xml version="1.0" standalone="no"?>
<!DOCTYPE svg PUBLIC "-//W3C//DTD SVG 20010904//EN"
 "http://www.w3.org/TR/2001/REC-SVG-20010904/DTD/svg10.dtd">
<svg version="1.0" xmlns="http://www.w3.org/2000/svg"
 width="879.000000pt" height="1280.000000pt" viewBox="0 0 879.000000 1280.000000"
 preserveAspectRatio="xMidYMid meet">
<metadata>
Created by potrace 1.15, written by Peter Selinger 2001-2017
</metadata>
<g transform="translate(0.000000,1280.000000) scale(0.100000,-0.100000)"
fill="#000000" stroke="none">
<path d="M3745 12790 c-124 -12 -363 -62 -465 -98 -258 -90 -461 -227 -576
-388 -26 -36 -63 -73 -87 -87 -101 -60 -202 -183 -245 -300 -12 -30 -45 -92
-75 -138 -89 -138 -173 -310 -198 -409 -20 -79 -18 -349 5 -465 28 -149 83
-300 137 -376 23 -33 122 -62 194 -57 l50 3 -50 8 c-110 17 -163 61 -205 167
-75 190 -99 576 -46 728 39 110 148 299 227 395 133 160 258 210 444 178 105
-19 279 -97 457 -208 90 -56 203 -110 273 -133 94 -30 274 -106 320 -135 98
-62 159 -144 230 -310 14 -33 51 -101 82 -152 44 -74 56 -104 62 -152 4 -34 5
-61 3 -61 -3 0 -33 18 -67 39 -145 92 -348 182 -525 234 -219 64 -232 66 -913
93 -360 15 -420 15 -429 3 -13 -20 -3 -209 17 -304 36 -172 109 -343 212 -500
59 -90 129 -159 275 -274 113 -88 133 -118 183 -273 46 -143 58 -171 133 -305
l46 -83 57 0 c80 0 139 27 175 81 41 61 108 129 128 129 13 0 16 -12 16 -67 0
-84 26 -144 72 -173 26 -17 46 -20 98 -18 l65 3 7 -55 c9 -73 23 -83 113 -75
l70 6 29 -51 c26 -47 28 -58 21 -114 -17 -156 -76 -379 -125 -476 -29 -58
-198 -241 -275 -298 -81 -60 -158 -95 -198 -90 -18 3 -75 16 -127 30 -52 14
-112 29 -133 32 -57 10 -258 111 -296 148 -19 18 -49 66 -67 106 -19 42 -39
72 -48 72 -13 0 -13 -5 1 -46 11 -32 14 -70 11 -130 -2 -46 -6 -85 -9 -88 -2
-2 -40 1 -84 6 -44 5 -110 8 -148 6 -37 -2 -67 -3 -67 -2 0 0 22 23 49 51 27
28 61 73 77 99 15 27 42 61 58 76 l31 26 -37 16 c-21 9 -44 16 -52 16 -25 0
-74 61 -85 106 -6 24 -11 64 -11 89 0 56 37 148 56 141 23 -9 45 5 39 24 -3
10 0 22 7 26 9 6 5 10 -12 14 -40 9 -74 119 -71 229 1 25 10 42 38 67 40 37
38 42 -8 18 -74 -38 -89 -177 -33 -306 17 -37 17 -37 -14 -72 -75 -86 -81
-250 -11 -346 27 -38 43 -49 92 -64 24 -8 10 -34 -61 -108 -56 -59 -138 -108
-180 -108 -35 0 -79 51 -136 158 -27 51 -60 105 -73 120 -32 35 -53 83 -54
124 0 18 -5 42 -10 53 -6 14 -8 -4 -6 -56 4 -70 8 -84 50 -155 25 -44 56 -101
68 -129 12 -27 33 -65 46 -83 19 -25 22 -37 14 -45 -19 -19 -12 -36 17 -39
l27 -3 -37 -23 c-34 -21 -167 -161 -228 -239 -14 -17 -71 -89 -126 -160 -190
-240 -314 -430 -314 -480 0 -15 -32 -33 -57 -33 -10 0 -47 -14 -81 -30 -84
-40 -165 -123 -269 -275 -59 -86 -118 -155 -208 -244 -139 -139 -184 -198
-217 -286 -20 -52 -23 -79 -22 -200 0 -124 4 -153 32 -256 17 -64 69 -219 115
-345 91 -246 127 -363 127 -410 0 -16 -12 -90 -26 -164 -21 -107 -26 -164 -25
-274 l0 -138 -82 -92 c-87 -98 -123 -141 -337 -407 -127 -158 -138 -175 -189
-296 -202 -479 -232 -654 -251 -1461 -17 -729 -28 -909 -71 -1109 -12 -54 -23
-111 -24 -126 -2 -15 -9 -34 -15 -43 -21 -24 -4 -28 32 -7 73 43 105 115 166
373 l27 115 -3 545 c-4 979 34 1295 211 1708 48 114 69 146 292 452 132 181
243 329 246 330 3 0 16 -39 29 -86 30 -114 68 -187 136 -257 l55 -58 -30 -48
c-65 -100 -75 -148 -75 -336 0 -222 23 -321 129 -545 100 -213 218 -587 285
-905 12 -55 30 -122 39 -150 44 -120 101 -573 141 -1121 19 -270 114 -495 161
-383 10 26 10 48 0 118 -9 67 -9 126 0 266 18 277 1 591 -46 841 -8 44 -16 91
-19 106 -2 14 -39 154 -81 310 -133 489 -265 857 -355 989 -41 60 -91 158
-105 206 l-6 22 73 -21 c93 -26 159 -63 233 -133 33 -30 94 -81 135 -112 41
-32 120 -98 175 -148 137 -125 137 -125 220 -125 118 0 212 36 241 91 11 22
22 29 44 29 68 0 125 42 135 99 5 30 10 36 31 37 59 4 95 17 122 44 21 21 42
30 77 34 l48 6 -7 -78 c-4 -42 -22 -201 -41 -352 -45 -359 -81 -688 -97 -875
-23 -286 -10 -1038 23 -1298 18 -137 29 -141 57 -19 29 123 40 221 57 507 24
387 50 705 81 970 8 72 37 333 64 580 80 718 92 795 169 1100 56 217 79 368
121 790 16 165 37 352 46 415 41 291 183 571 342 674 20 14 97 40 170 59 l132
35 0 -27 c0 -51 161 -271 316 -431 l92 -95 -23 -60 c-13 -33 -39 -96 -58 -140
-65 -147 -105 -434 -114 -830 -5 -224 -3 -264 31 -600 19 -198 43 -448 51
-555 20 -243 44 -419 90 -648 112 -557 266 -994 392 -1114 33 -31 69 -41 67
-18 -1 8 -27 114 -58 235 -130 513 -271 1244 -301 1565 -21 228 -51 467 -80
645 -45 275 -49 335 -49 730 0 406 -1 396 58 649 14 59 27 110 29 113 3 2 36
-16 74 -40 226 -147 478 -172 761 -78 l82 27 0 -22 c0 -79 -27 -254 -62 -404
-46 -196 -51 -273 -23 -365 21 -73 124 -291 205 -435 89 -160 133 -298 289
-908 50 -194 96 -361 101 -370 21 -33 1 135 -35 295 -115 504 -204 779 -328
1011 -236 439 -252 500 -193 732 29 116 43 213 54 369 l7 105 190 84 c336 148
405 169 519 160 152 -13 277 -112 574 -456 67 -78 152 -167 190 -198 84 -69
204 -128 304 -148 98 -20 150 -20 263 0 237 43 285 26 568 -204 302 -245 363
-285 465 -303 31 -5 92 -19 135 -31 l77 -21 0 -51 c0 -121 -22 -491 -35 -610
-19 -166 -55 -341 -99 -486 -142 -469 -155 -518 -185 -695 -38 -224 -53 -380
-81 -855 -18 -296 -40 -404 -129 -621 -86 -212 -116 -366 -115 -599 1 -88 7
-177 14 -205 6 -27 12 -63 12 -78 1 -24 3 -26 14 -15 9 9 16 73 24 208 17 312
52 470 148 680 78 171 100 321 112 765 16 574 44 762 198 1305 119 417 137
541 137 933 l0 309 30 -7 c17 -3 57 -8 91 -11 58 -6 62 -5 82 21 13 16 22 42
22 61 0 92 -127 498 -375 1199 -181 511 -302 875 -330 985 -12 52 -48 174 -78
270 -30 96 -98 317 -151 490 -357 1181 -682 1897 -1172 2585 -193 272 -364
555 -684 1130 -329 593 -461 804 -674 1079 -201 260 -386 441 -587 573 -157
102 -289 156 -466 188 -104 19 -398 27 -528 15z m452 -45 c143 -19 276 -60
403 -126 285 -146 593 -467 902 -939 121 -186 212 -341 438 -750 336 -607 511
-897 705 -1175 259 -369 377 -564 526 -870 108 -222 328 -765 407 -1005 85
-258 188 -589 217 -695 109 -407 391 -1294 597 -1880 211 -599 292 -857 313
-993 8 -53 7 -53 -139 -6 -61 20 -145 42 -186 50 -117 23 -149 43 -390 243
-240 200 -339 261 -464 287 -66 14 -78 14 -186 -7 -194 -36 -347 -12 -481 77
-70 46 -218 194 -311 310 -136 169 -323 333 -439 384 -68 29 -185 38 -272 20
-83 -18 -185 -56 -347 -130 -194 -89 -387 -166 -456 -181 -80 -17 -297 -18
-354 0 -194 59 -342 164 -513 364 -61 71 -167 220 -167 235 0 7 17 20 38 28
126 52 263 119 281 137 47 51 122 241 207 526 82 273 127 489 175 846 38 273
26 666 -27 946 -8 42 -39 157 -69 255 -91 297 -88 268 -91 854 -1 318 -6 549
-13 605 -15 111 -39 233 -51 260 -12 26 -110 301 -110 309 0 4 9 2 20 -4 26
-14 26 1 0 18 -15 9 -18 19 -14 41 8 39 -20 169 -52 244 -20 47 -27 81 -29
142 -4 155 -122 508 -228 682 -84 137 -233 266 -407 353 -276 138 -606 176
-842 96 -40 -13 -74 -23 -76 -21 -12 12 136 158 219 216 155 110 369 191 613
234 176 30 186 31 378 33 93 1 205 -4 275 -13z m-987 -515 c63 -10 147 -30
187 -44 208 -71 422 -228 531 -389 30 -45 164 -317 156 -317 -2 0 -32 23 -66
51 -76 61 -211 128 -418 204 -177 66 -218 85 -279 131 -55 42 -245 137 -330
164 -198 63 -361 47 -501 -47 -51 -35 -89 -56 -65 -36 6 4 15 17 21 27 6 11
18 24 28 30 9 6 39 32 66 59 28 26 56 47 64 47 8 0 17 9 21 20 16 51 233 117
395 119 41 0 127 -8 190 -19z m-375 -1145 c187 -8 411 -15 498 -15 104 0 184
-5 235 -16 173 -35 502 -161 653 -249 73 -43 76 -47 87 -95 6 -27 31 -103 55
-167 93 -250 101 -323 93 -861 l-7 -414 -28 -36 c-15 -21 -40 -54 -56 -76 -27
-38 -29 -38 -82 -34 -67 6 -96 27 -149 109 -70 107 -72 109 -159 109 l-75 0 0
38 c0 89 -31 115 -96 81 -107 -54 -172 5 -191 174 -3 31 -10 57 -14 57 -5 0
-9 -4 -9 -10 0 -5 -8 -10 -17 -10 -41 -1 -100 -39 -141 -92 -46 -60 -74 -77
-137 -81 -38 -2 -40 0 -67 48 -36 65 -68 149 -119 312 -49 157 -78 205 -172
281 -232 188 -298 266 -393 466 -74 157 -143 415 -126 478 5 22 -19 22 417 3z
m1630 -2050 c17 -132 51 -284 90 -415 25 -81 65 -258 65 -285 0 -7 -37 -44
-82 -82 -45 -37 -115 -98 -156 -134 -54 -48 -88 -70 -129 -83 -30 -10 -56 -16
-58 -14 -2 2 5 36 16 76 10 40 32 164 49 275 17 111 40 243 51 292 28 123 34
246 16 312 -15 56 -13 63 14 63 21 0 78 63 92 104 13 37 12 39 32 -109z m-348
61 c20 -31 31 -36 105 -53 l83 -19 3 -74 c4 -91 -9 -168 -48 -295 -42 -136
-122 -548 -118 -605 l3 -47 -79 -27 c-76 -26 -110 -29 -67 -6 30 16 26 47 -12
85 -43 43 -130 70 -201 61 -42 -4 -58 -1 -91 18 -23 12 -64 31 -93 41 -29 11
-52 22 -52 27 0 4 22 19 50 33 73 37 176 130 274 247 80 96 88 110 122 211 34
101 84 346 84 409 0 37 10 35 37 -6z m-1163 -745 c16 -6 26 -14 23 -18 -8 -8
-115 6 -121 16 -3 4 -8 28 -12 52 l-7 44 44 -41 c24 -22 57 -46 73 -53z m1683
-118 c13 -75 9 -556 -5 -663 -10 -74 -18 -100 -35 -117 -12 -12 -94 -58 -182
-102 l-160 -80 -270 -61 c-148 -33 -275 -60 -282 -60 -8 0 -5 26 12 88 35 130
64 207 155 423 l82 196 43 -5 c52 -5 152 23 269 77 70 32 92 49 164 127 46 49
106 119 135 156 29 37 55 67 59 68 4 0 10 -21 15 -47z m-1829 17 c24 -6 129
-26 233 -45 160 -30 616 -138 627 -150 2 -2 -7 -9 -20 -16 -30 -15 -118 -88
-192 -158 -69 -66 -203 -262 -257 -376 -69 -146 -92 -242 -93 -390 -1 -125 0
-132 27 -177 15 -27 24 -48 19 -48 -17 0 -107 43 -157 75 -27 18 -90 67 -140
110 -49 42 -111 88 -137 101 -60 30 -149 54 -205 54 -31 0 -43 4 -43 14 0 8
-13 22 -29 32 -55 32 -104 135 -118 246 -7 57 -23 53 -23 -5 0 -85 61 -250 97
-264 7 -3 13 -10 13 -15 0 -7 -52 -9 -157 -5 -170 6 -236 20 -461 100 -53 19
-116 38 -139 42 l-42 7 26 41 c104 168 443 567 610 720 83 76 117 96 193 114
62 14 295 10 368 -7z m1015 -200 c31 -12 68 -35 86 -55 17 -19 36 -35 42 -35
10 0 -21 -62 -174 -343 -84 -155 -144 -300 -179 -427 -30 -115 -32 -290 -3
-368 22 -60 60 -107 92 -117 32 -9 39 31 23 135 -7 47 -15 105 -17 130 l-5 46
163 52 c90 28 229 70 309 92 139 39 194 65 300 143 104 75 136 97 143 97 27 0
-141 -751 -176 -785 -7 -7 -8 -5 -4 6 50 143 99 574 67 594 -6 4 -10 -6 -10
-24 0 -16 -11 -94 -25 -173 -25 -149 -67 -301 -116 -426 -37 -91 -43 -190 -15
-220 17 -20 16 -23 -16 -99 l-34 -78 -101 -51 c-132 -66 -226 -95 -321 -99
-74 -2 -78 -1 -132 35 -97 66 -279 272 -320 362 -19 41 -168 109 -280 127 -97
16 -147 46 -260 156 -58 56 -114 107 -125 113 -33 17 -170 42 -231 42 -31 0
-96 -7 -146 -16 -83 -16 -96 -16 -173 0 -49 9 -140 40 -223 76 -114 49 -151
60 -194 60 -59 0 -119 -24 -158 -61 -32 -31 -137 -158 -217 -262 -113 -146
-203 -361 -238 -564 -13 -74 -65 -513 -65 -544 0 -6 -5 -7 -10 -4 -5 3 -10 39
-10 80 0 41 -4 77 -10 80 -6 4 -10 -17 -10 -54 0 -34 -3 -61 -8 -61 -7 0 -67
157 -133 347 -72 206 -93 335 -78 467 13 124 40 166 209 340 110 113 167 181
226 271 130 196 228 275 343 275 35 0 96 -14 180 -41 248 -80 251 -80 546 -89
328 -9 336 -11 458 -112 194 -160 243 -185 558 -283 222 -68 266 -107 339
-297 40 -105 91 -181 158 -234 l55 -42 103 2 c121 3 154 16 41 16 -43 0 -77 2
-77 4 0 2 9 26 21 53 45 104 78 304 99 593 6 80 13 165 15 190 l5 45 -14 -30
c-8 -16 -26 -100 -40 -185 -44 -256 -66 -360 -98 -470 -17 -58 -35 -124 -40
-147 -5 -24 -13 -43 -17 -43 -13 0 -94 85 -127 135 -19 28 -47 88 -64 133 -57
157 -97 207 -205 260 -49 24 -154 64 -175 67 -3 0 -26 7 -52 14 -38 11 -48 18
-48 35 0 11 -7 55 -16 96 -20 94 -14 233 15 344 51 193 202 458 340 597 66 66
171 147 193 148 4 1 32 -8 61 -19z m-123 -1000 c0 -5 -5 -10 -11 -10 -5 0 -7
5 -4 10 3 6 8 10 11 10 2 0 4 -4 4 -10z m-1765 -209 c60 -27 126 -54 146 -60
25 -8 46 -25 62 -50 14 -22 56 -61 93 -88 37 -26 86 -64 108 -84 61 -54 81
-62 137 -54 57 8 74 29 64 76 -8 37 -46 73 -127 119 -34 19 -63 40 -65 46 -5
14 42 24 110 24 46 0 53 -3 84 -40 36 -42 217 -202 268 -236 39 -27 108 -44
129 -32 9 5 16 18 16 28 0 23 0 23 37 9 15 -6 63 -17 107 -25 44 -9 108 -27
143 -41 54 -22 71 -35 110 -87 108 -142 248 -268 320 -288 l38 -11 -72 -13
c-85 -14 -135 -41 -220 -119 -117 -106 -219 -291 -279 -506 -14 -52 -27 -100
-30 -107 -3 -9 -13 -6 -37 12 -19 14 -49 29 -68 32 -68 12 -333 140 -457 220
-240 156 -294 196 -407 304 -66 64 -169 151 -229 195 -204 150 -293 237 -284
279 2 14 14 11 73 -17 39 -19 112 -61 162 -95 105 -69 173 -95 235 -90 40 3
43 5 46 34 5 52 -57 116 -217 228 -204 142 -291 233 -291 302 0 13 7 15 37 9
53 -10 88 -30 168 -94 39 -31 99 -77 135 -101 36 -24 89 -65 117 -91 84 -76
153 -76 153 -1 0 80 -98 175 -350 340 -141 92 -160 107 -160 126 0 18 87 -6
195 -53z m-210 39 c-11 -17 41 -94 87 -132 24 -19 71 -54 106 -77 121 -81 266
-220 248 -238 -3 -3 -32 20 -64 51 -32 31 -78 69 -102 85 -25 15 -83 60 -130
100 -86 72 -163 111 -220 111 -17 0 -30 4 -30 10 0 14 85 100 99 100 7 0 9 -5
6 -10z m962 -138 c34 -18 223 -198 223 -213 0 -14 -16 -10 -30 6 -7 8 -69 53
-139 100 -133 90 -171 119 -171 130 0 11 82 -5 117 -23z m-387 0 c0 -5 41 -41
90 -81 50 -39 90 -76 90 -81 0 -23 -43 -7 -83 29 -23 21 -71 59 -107 85 -36
27 -67 50 -69 52 -2 2 14 4 37 4 23 0 42 -4 42 -8z m-712 -67 c20 -99 79 -163
277 -303 55 -39 121 -89 145 -112 44 -41 45 -41 15 -35 -16 3 -75 37 -130 74
-180 123 -271 159 -320 127 -36 -24 -34 -81 7 -158 35 -66 98 -128 228 -221
134 -96 218 -165 314 -256 76 -71 221 -175 376 -268 95 -58 218 -114 344 -159
136 -48 139 -50 191 -109 l54 -61 -19 -134 c-11 -74 -31 -238 -45 -365 -28
-248 -48 -361 -94 -525 -77 -280 -120 -438 -126 -464 -5 -26 -8 -27 -23 -14
-22 20 -78 38 -114 38 -44 0 -104 36 -165 98 -30 31 -96 100 -146 152 -51 52
-97 104 -103 115 -7 11 -15 17 -19 13 -14 -13 35 -93 95 -157 33 -35 71 -83
84 -106 27 -46 131 -147 174 -169 15 -7 50 -17 77 -21 60 -8 80 -21 87 -57 5
-25 2 -28 -29 -34 -49 -9 -169 33 -328 116 -134 70 -216 101 -269 99 l-31 0
25 -11 c97 -42 163 -77 250 -133 55 -36 127 -79 162 -97 52 -26 59 -33 43 -39
-42 -16 -133 -9 -207 16 -153 54 -200 66 -240 63 l-40 -3 88 -37 c182 -75 264
-113 264 -124 0 -20 -48 -56 -87 -65 -67 -15 -193 -10 -271 11 -85 24 -88 24
-73 6 22 -27 131 -67 213 -78 46 -7 85 -13 87 -15 2 -1 -4 -12 -14 -23 -29
-32 -117 -53 -202 -48 l-73 5 -154 151 c-105 103 -182 169 -242 208 -49 31
-107 72 -129 89 -50 40 -93 62 -159 82 -28 8 -68 24 -88 34 -47 24 -57 57 -65
202 -6 105 -5 111 33 232 30 96 43 124 54 120 8 -2 74 -9 145 -15 212 -19 329
-14 528 20 98 16 197 30 220 30 45 0 110 -26 148 -58 13 -11 65 -54 116 -96
83 -69 183 -173 183 -190 0 -3 -30 -6 -66 -6 -65 0 -67 1 -146 60 -45 33 -89
60 -99 60 -9 0 -24 3 -33 6 -11 4 -16 1 -16 -10 0 -9 6 -16 13 -16 7 0 46 -34
87 -76 41 -41 87 -82 102 -90 35 -18 218 -20 236 -2 7 7 12 29 12 51 0 33 -9
48 -57 103 -32 36 -116 112 -187 170 -111 89 -139 108 -199 126 -85 25 -201
21 -317 -12 -172 -48 -226 -53 -474 -40 -228 11 -246 13 -246 30 0 4 -24 49
-53 98 -98 165 -133 313 -124 527 6 171 24 276 48 282 38 10 57 94 104 451 55
430 96 604 171 727 20 33 44 76 54 95 21 40 137 180 149 180 5 0 13 -25 19
-55z m2816 -149 c-3 -14 -10 -26 -15 -26 -4 0 -3 14 3 31 12 36 22 33 12 -5z"/>
<path d="M3295 10698 c-131 -24 -245 -116 -245 -198 0 -50 22 -70 50 -45 11
10 20 24 20 32 0 54 79 134 183 184 26 13 47 27 47 31 0 4 -1 7 -2 7 -2 -1
-25 -6 -53 -11z"/>
<path d="M3449 10403 c-14 -15 -42 -50 -63 -76 -53 -67 -68 -72 -144 -49 -34
11 -62 17 -62 13 0 -3 21 -21 48 -38 67 -46 123 -46 182 1 23 18 56 53 72 77
49 73 22 132 -33 72z"/>
<path d="M2662 10079 c-56 -11 -118 -51 -159 -101 -31 -38 -44 -88 -24 -88 5
0 32 27 61 60 66 76 104 99 193 115 40 7 59 14 42 14 -16 1 -39 3 -50 5 -11 2
-40 0 -63 -5z"/>
<path d="M2647 9876 c-59 -21 -99 -60 -147 -141 -30 -50 -42 -135 -20 -135 6
0 13 -1 17 -2 4 -2 8 9 10 24 2 30 33 94 74 154 40 59 96 82 227 95 59 6 109
13 111 15 12 11 -238 2 -272 -10z"/>
<path d="M2332 9859 c-146 -73 -276 -303 -258 -458 6 -47 4 -57 -16 -78 -21
-22 -23 -36 -26 -141 -5 -168 33 -309 98 -367 l23 -20 -7 43 c-3 24 -21 71
-38 105 -28 52 -33 76 -41 177 -11 139 -3 193 31 198 13 2 27 13 31 26 5 12
16 28 26 36 9 7 21 23 27 34 10 20 9 20 -14 -1 -43 -40 -52 -31 -44 47 6 71
40 175 72 227 64 100 132 158 214 179 l45 13 -40 0 c-22 1 -59 -9 -83 -20z"/>
<path d="M2940 9667 c-43 -28 -65 -66 -85 -145 -17 -67 -13 -122 11 -122 15 0
19 16 29 100 11 95 43 149 104 177 l26 11 -26 1 c-14 1 -41 -9 -59 -22z"/>
<path d="M2343 9551 c-49 -47 -73 -112 -73 -198 0 -70 16 -118 49 -147 33 -29
37 -12 13 57 -26 72 -28 147 -7 208 18 49 37 74 80 100 l30 19 -26 0 c-17 0
-41 -14 -66 -39z"/>
<path d="M2742 9509 c-75 -37 -105 -127 -77 -226 18 -61 39 -93 62 -93 17 0
17 5 -7 69 -48 126 -18 218 85 258 29 11 29 12 5 12 -14 1 -44 -9 -68 -20z"/>
<path d="M3335 9176 c-31 -13 -85 -69 -85 -87 0 -13 4 -12 45 12 41 25 99 19
128 -12 24 -25 52 -24 71 3 22 31 20 45 -9 73 -19 20 -34 25 -72 25 -26 -1
-62 -7 -78 -14z"/>
<path d="M2267 9103 c-15 -24 -20 -140 -7 -192 12 -50 42 -101 61 -101 16 0
10 50 -13 93 -15 30 -24 67 -27 127 -4 47 -10 80 -14 73z"/>
<path d="M3757 9083 c-19 -22 -22 -46 -7 -74 12 -21 49 -26 67 -8 6 6 25 8 48
3 27 -5 44 -17 66 -47 l29 -40 0 32 c0 18 -7 45 -15 61 -36 71 -150 114 -188
73z"/>
<path d="M3520 8883 c0 -5 11 -15 25 -21 17 -8 25 -20 25 -36 0 -34 13 -39 43
-16 14 11 35 20 46 20 27 0 27 26 1 40 -27 15 -140 25 -140 13z"/>
<path d="M2255 8673 c8 -56 48 -138 70 -147 34 -13 48 21 19 45 -9 7 -31 43
-50 81 -19 37 -37 68 -40 68 -4 0 -3 -21 1 -47z"/>
<path d="M3413 8648 c-60 -20 -48 -24 115 -42 12 -1 38 -17 56 -35 33 -32 65
-38 73 -14 8 23 -51 70 -109 87 -63 18 -88 19 -135 4z"/>
<path d="M3422 8562 c-7 -2 -12 -8 -12 -13 0 -16 104 -69 136 -69 35 0 51 22
29 40 -17 14 -138 47 -153 42z"/>
<path d="M915 4271 c-99 -61 -201 -219 -249 -385 -50 -172 -59 -295 -52 -686
11 -576 23 -843 45 -995 12 -79 21 -193 21 -262 0 -120 11 -160 24 -85 10 61
7 205 -8 402 -22 274 -41 835 -41 1170 0 243 3 309 17 372 37 167 112 307 227
428 61 64 63 70 16 41z"/>
<path d="M977 3962 c-39 -86 -57 -175 -57 -282 0 -117 19 -198 99 -428 117
-333 130 -409 141 -822 9 -343 14 -385 81 -655 22 -88 42 -185 45 -215 3 -30
8 -66 11 -80 6 -24 6 -23 14 10 11 42 5 97 -27 250 -65 321 -83 483 -84 755 0
88 -5 203 -10 255 -10 112 -67 323 -144 535 -83 230 -99 301 -100 435 -1 95 3
126 22 181 12 36 29 75 37 85 17 22 19 34 6 34 -4 0 -20 -26 -34 -58z"/>
<path d="M4866 3696 c-14 -45 1 -272 24 -371 43 -189 89 -321 264 -755 61
-149 148 -398 206 -585 33 -106 111 -262 177 -350 93 -125 363 -384 363 -348
0 4 -66 80 -146 168 -219 241 -316 401 -389 640 -62 202 -173 490 -284 736
-132 294 -188 504 -200 749 -5 104 -9 137 -15 116z"/>
</g>
</svg>
