<?xml version="1.0" encoding="utf-8"?>

<!DOCTYPE svg PUBLIC "-//W3C//DTD SVG 1.1//EN" "http://www.w3.org/Graphics/SVG/1.1/DTD/svg11.dtd">
<svg version="1.1" id="Layer_1" xmlns="http://www.w3.org/2000/svg" xmlns:xlink="http://www.w3.org/1999/xlink" x="0px" y="0px"
	 viewBox="0 0 1425.138 1662.82" enable-background="new 0 0 1425.138 1662.82" xml:space="preserve">
<g>
	<path d="M904.84,353.12c3.241,1.538,7.026,2.453,9.266,5.502c122.806,126.051,155.13,223.72,165.976,241.605
		c24.131,39.668,87.208,143.157,114.313,180.823c3.612,5.17,7.967,9.757,11.765,14.794c26.099,34.197,87,124.743,113.22,171.099
		c13.657,25.163,5.589,15.762,19.375,40.182c12.972,22.152,27.799,43.171,43.098,63.772c3.606-2.592,7.079-5.356,10.652-7.994
		c-14.838-19.898-45.328-62.045-53.014-85.526c-13.843-33.204-99.711-160.336-125.284-192.86
		c26.587-123.255,16.279-254.485-30.802-371.575C1065.21,116.64,740.663-40.796,439.757,63.757
		c-51.973,17.97-101.309,43.462-146.19,75.219C-53.797,384.932-55.164,912.078,294.376,1160.09
		c5.793,13.893,11.202,27.952,16.651,41.991c-13.944,16.358-35.158,37.611-54.313,47.413
		c-21.643,12.523-38.145,45.258-47.559,68.471c-3.086,8.186-28.234,63.399-39.094,85.427c-2.011,4.457-6.836,6.593-20.86,54.903
		c-13.624,49.166-9.338,55.908-10.765,69.784c-2.638,29.1-13.939,71.802-22.404,99.393c4.249,1.319,8.484,2.658,12.74,3.937
		c27.952-93.067,22.411-113.625,23.703-124.024c2.933-27.375,15.314-67.943,24.823-89.954c6.505-10.042,22.457-45.719,39.26-82.769
		c2.359-4.942,22.831-61.961,47.837-74.205c19.33-10.203,39.011-29.584,53.531-46.028c26.04,39.195,101.424,149.549,128.147,188.625
		c-3.4,6.628-7.192,13.051-11.248,19.302c-24.954,38.231-50.189,57.485-78.023,71.216c4.869-2.402,10.198-3.976,15.108-6.376
		c5.015-2.452,9.895-5.178,14.628-8.138c9.513-5.949,18.428-12.835,26.732-20.375c7.814-7.094,15.094-14.77,21.857-22.87
		c8.754-10.484,16.929-21.68,24.773-32.832c30.034-43.007,72.675-66.588,117.654-71.335c-29.091,32.166-41.764,50.631-62.943,73.085
		c-14.45,15.232-28.416,30.981-40.977,47.824c-24.162,33.492-15.218,30.907-23.995,44.245
		c-21.035,34.041-94.103,102.134-123.295,129.188c41.067-4.009,137.975-117.39,141.55-72.608
		c2.286,29.071,11.727,55.736,23.067,73.536c-2.439-98.474,13.663-95.938,17.99-103.344c11.739-18.482,9.762-61.129,7-82.994
		c-0.569-7.602-4.724-5.176,8.08-27.8c1.482-2.865,3.881-5.44,5.858-7.959c4.07-5.188,8.237-10.3,12.421-15.396
		c10.589-12.896,21.336-25.668,32.27-38.275c4.056-4.676,7.974-9.747,12.354-14.078c4.521-4.47,8.922-9.516,13.855-13.523
		c4.541-3.689,9.243-7.294,13.92-10.842c9.306-7.062,19.758-12.578,30.856-16.232c7.885-2.596,16.071-4.255,24.339-4.988
		c0.835,7.762,2.678,15.378,4.958,22.828c-46.385,22.749-93.048,61.274-105.849,111.112c-6.907,28.356-15.305,56.467-27.263,83.133
		c-4.613,10.897-10.97,21.138-13.754,32.738c-8.509,23.789-29.379,64.1-17.705,81.138c23.624,0.676,47.227,1.849,70.851,2.505
		c-1.55-24.962,1.452-52.932,15.053-73.774c13.746-22.664,11.854-46.342,13.23-67.331c0.714-13.939,21.486-101.828,79.992-130.567
		c5.362,14.218,9.837,28.84,12.243,43.874c-22.67,18.613-40.936,51.608-46.359,77.824c6.254-10.895,20.794-42.83,46.697-75.995
		c1.319,8.756,2.426,17.585,2.665,26.441c-18.921,39.754-39.347,50.802-51.324,71.633c-25.253,42.935-27.801,97.163-27.302,105.398
		c1.253-2.101,1.127-4.673,1.776-6.973c25.776-130.561,43.742-96.189,77.214-166.996c1.708,46.317-6.181,103.619-1.458,197.798
		c4.395-0.311,8.796-0.457,13.197-0.696c-6.211-129.691,9.276-176.612-3.407-238.219c-7.144-35.526-21.423-58.58-27.753-83.975
		c-1.17-4.761-5.135-22.385-0.636-24.406c56.579,70.402,64.178,158.061,68.279,236.588c1.823,35.932,2.28,71.932,1.538,107.897
		c4.965,0.683,9.923,1.425,14.894,2.108c8.665-105.338,2.672-286.249-74.994-357.397c2.075-4.275,3.772-8.73,5.183-13.264
		c4.182,0.477,8.372-0.106,12.528-0.418c38.322,10.351,72.461,20.042,85.732,20.097c24.341,3.807,59.319,12.265,84.015-5.681
		c19.68,9.442,34.084,1.001,61.923,16.279c13.034,7.104,18.431-3.988,51.304,21.542c12.981,8.727,42.083,15.733,52.563,18.341
		c56.944,15.746,91.55,34.001,98.816,40.486c76.628,59.012,85.703,68.341,102.972,78.586
		c36.629,21.672,80.151,33.919,106.771,58.224c-12.119-15.3-33.944-28.911-50.8-38.988c10.002-62.73-42.864-78.198-77.294-108.62
		c-25.674-22.615-32.459-49.337-0.988-63.818c5.422-2.393,9.293-8.027,9.26-13.993c-0.029-36.271-55.741-87.582-56.315-108.036
		c-1.116-17.615-39.326-40.617-30.212-44.841c3.586-1.664,7.689-0.776,11.507-1.246c9.956-0.782,20.469-4.7,26.249-13.277
		c1.849-2.32,1.651-5.402,1.949-8.179c2.453-29.283-12.65-48.798-37.709-64.137c-31.535-19.463-40.444-15.271-53.69-39.731
		c-15.442-29.619-22.474-77.341-29.178-119.57c-7.902-52.438-29.391-106.126-50.257-154.926
		c-15.48-35.089-99.426-277.411-136.757-346.971c-3.574-6.416-12.107-20.988-7.291-26.878
		C880.326,342.982,897.216,349.99,904.84,353.12z M678.672,1267.251c-4.56,1.783-7.251,6.35-8.272,10.95
		c-29.398,1.867-57.43,14.557-80.853,39.446c-51.643,1.103-102.214,26.095-136.466,72.044
		c-147.494-215.605-126.115-185.154-132.197-199.011c-15.64-40.358-40.355-101.124-61.087-139.309
		c-20.03-35.661-16.205-17.176-42.508-59.596c-23.692-38.674-28.856-55.738-32.519-68.14
		c-17.489-60.202-2.164-120.532,34.786-163.245c25.926-29.936,39.614-25.751,52.577-52.318c4.222-8.816,6.695-18.414,7.636-28.124
		c6.9,37.848,1.823,77.997-15.305,112.531c-5.866,12.78-14.602,24.061-19.945,37.113c-30.799,71.771,11.466,172.125,20.382,187.65
		c-22.938-58.551-40.199-139.292-10.712-195.306c18.061-31.529,9.152-15.403,17.294-32.367c15.623-35.515,18.54-76.28,8.736-113.783
		c1.047-22.238-3.155-44.536-10.811-65.376c-10.831-24.234-20.899-49.037-26.414-75.087c-2.617-12.61-5.904-35.235,1.273-45.942
		c8.506-28.438,33.578-39.097,63.049-41.467c25.838-1.916,51.695,2.214,76.803,8.034c-42.768,58.457-54.379,56.794-60.531,60.57
		c-22.888,13.021-38.448,40.324-35.667,73.734c2.255,30.282,29.778,88.054,43.502,115.016
		c10.373,20.462,22.285,40.082,33.672,59.987c-1.558-6.41-3.526-12.713-5.256-19.076c9.902,13.134,21.884,24.473,32.064,37.355
		c10.724,13.571,16.642,30.724,24.405,46.017c4.277,8.426,9.117,17.447,16.669,23.412c9.558,8.909,17.446,19.428,25.155,29.934
		c2.227,6.953,4.958,14.324,10.917,19.017c4.189,3.507,9.777,4.812,15.153,4.335c16.379,15.338,33.421,29.974,50.21,44.848
		c3.049,37.312-2.126,48.783,8.067,86.892c2.797,10.042,6.29,20.038,11.931,28.867c14.006,19.32,27.767,84.919,52.186,113.061
		c6.654,7.985-3.766-7.17,22.106,29.576c6.795,9.382,20.345,33.316,57.932,43.184
		C685.412,1256.116,681.873,1266.42,678.672,1267.251z M237.909,673.24c9.353-15.033,16.697-31.253,22.477-47.97
		c2.075,7.397,3.99,14.881,5.011,22.503c-16.542,38.333-47.229,72.964-81.291,96.762c0.994-7.192,2.267-14.337,3.52-21.489
		C208.803,711.764,225.354,693.417,237.909,673.24z M188.302,719.572c5.521-30.166,12.932-59.981,22.059-89.252
		c7.364-23.358,15.683-46.452,25.804-68.763c4.441,14.569,9.996,28.774,16.034,42.747c2.287,5.495,5.064,10.798,6.801,16.518
		C246.571,658.738,223.296,700.211,188.302,719.572z M238.856,696.744c10.705-13.529,19.991-28.21,27.283-43.854
		c3.27,26.659-1.079,54.418-23.405,69.572c-30.052,19.495-53.256,51.023-65.23,82.027c0.941-18.858,3.414-37.623,5.985-56.322
		C204.442,734.002,223.107,716.517,238.856,696.744z M725.349,992.318c-5.677,5.232-10.906,10.928-16.631,16.109
		c-6.018,5.447-13.241,11.366-20.96,14.122c-5.839,2.085-12.209,2.862-18.249,4.242c-5.156,1.178-10.347,2.295-15.456,3.667
		c-16.914,4.541-32.599-3.21-43.817-15.491c-8.626-9.444-15.866-20.089-24.23-29.767c-8.134-9.411-14.835-14.012-38.345-34.7
		c-0.02-0.736-0.033-1.445-0.04-2.148c10.404,0.915,13.77-6.996,20.15-7.848c4.057-0.756,6.907-4.024,9.32-7.112
		c7.161-8.824,2.818-8.482,28.376-17.154c4.567-1.677,9.545-3.241,12.972-6.874c-9.426,6.148-22.198,5.418-34.812,11.533
		c-6.41,3.069-8.928,10.526-14.854,14.218c-1.465,0.862-3.248,0.762-4.812,1.339c-4.143,1.412-7.258,4.845-11.447,6.158
		c-1.77,0.63-3.672,0.411-5.495,0.312c0.815-3.526,1.438-7.112,1.485-10.738c0.024-6.872,7.687-7.718,14.543-7.729
		c2.214-5.734,5.23-11.527,10.34-15.186c6.686-4.828,24.956,1.006,40.944-2.095c5.315-0.806,12.166-7.329,14.371-10.771
		c-2.678,2.446-5.601,4.593-8.65,6.555c-7.953,5.526-26.479-0.045-41.474-0.086c-8.696-0.188-15.256,8.485-19.123,16.319
		c-5.13,0.265-10.824,1.498-14.145,5.78c-2.181,2.605-2.333,6.125-2.373,9.366c-0.06,3.699-1.69,7.245-1.167,10.977
		c-16.651-15.046-32.963-30.464-49.189-45.961c6.091-2.956,13.224-4.779,19.859-2.532c-7.152-4.362-16.14-3.016-23.756-0.689
		c-2.095-0.384-4.196-1.087-6.343-0.762c-7.989,0.962-12.796-11.057-12.925-16.114c0.5-48.739-1.659-76.438-10.499-101.501
		c-16.43-45.341-47.168-54.316-55.599-54.121c-8.727-15.121-32.152-1.701-46.836,10.692c-27.048-99.418-37.642-77.006-41.481-137.44
		c-1.361-30.499,14.421-47.719,38.093-52.411c6.986-1.478,13.515-4.527,20.522-5.959c31.061-7.092,63.513-3.878,94.19,3.599
		c32.605,6.741,65.953,8.756,99.135,10.446c18.372,0.745,18.073,0.504,18.825,1.107c86.73,67.387,141.131,79.042,143.909,80.774
		c13.966,28.29,27.766,56.673,41.726,84.97c0.404-0.179,3.414,33.169,7.053,49.713c0.444,2.85,2.24,5.25,2.83,8.053
		c3.516,37.458,11.073,117.558,15.776,154.661C749.229,972.084,730.708,987.379,725.349,992.318z M797.274,933.637
		c1.797,17.478,7.122,17.323-4.607,144.354c-15.71-8.916-39.629-8.302-57.574-6.37c-12.294-15.819-9.792-56.103-7.623-75.875
		c5.939-5.773,12.309-11.076,18.447-16.631C763.045,963.968,780.126,948.769,797.274,933.637z M712.596,1073.457
		c-23.866,0.05-48.53-11.199-67.046-35.562c6.032-0.113,11.712-2.373,17.645-3.208c5.508-0.835,11.036-1.67,16.385-3.261
		C690.543,1045.465,701.632,1059.411,712.596,1073.457z M420.455,800.797c-2.055,1.445-4.183,2.817-5.906,4.673
		c-1.22-2.459-2.585-4.832-3.897-7.225c0.729-0.941,1.485-1.856,2.267-2.744C414.834,797.986,417.651,799.504,420.455,800.797z
		 M414.781,793.36c5.077-5.508,11.268-9.85,17.572-13.833c8.442,12.663,2.379,10.464-9.419,19.368
		C419.931,797.542,416.664,796.223,414.781,793.36z M424.399,803.992c7.073-3.659,13.674-8.657,18.202-15.279
		c-1.306,0.325-2.572,0.736-3.838,1.173c0.683-4.375-1.684-8.425-4.116-11.845c1.796-1.1,3.573-2.227,5.329-3.387
		c-13.224-0.232-26.964,8.551-30.464,21.662c-3.182-5.601-6.695-11.03-10.758-16.021c4.303-11.218,5.42-29.791,24.525-32.154
		c-4.189-1.445-8.889-1.18-12.879,0.729c-12.53,5.905-13.708,21.242-14.808,27.925c-10.586-11.03-22.079-21.151-32.512-32.333
		c4.933-10.177,30.203-14.201,41.474-15.61c-0.272-1.697-0.643-3.36-1.16-4.984c10.506,2.247,19.64,8.776,27.203,16.2
		c34.11,33.691,31.595,90.986,37.689,137.606c-7.609-10.46-15.643-20.694-24.936-29.722c-3.321-3.288-7.437-5.767-10.102-9.678
		c-7.046-9.836-12.11-20.879-17.923-31.445C418.367,805.947,421.589,805.549,424.399,803.992z M773.61,693.695
		c-5.411-10.955-10.783-21.928-16.157-32.901c-17.998-36.749-35.909-73.542-54.097-110.2c28.747,22.49,58.37,43.84,88.237,64.813
		C785.998,642.01,774.751,666.682,773.61,693.695z M722.996,620.988c-41.52-14.472-84.478-40.975-119.451-67.212
		c28.887,0.603,57.8,0.762,86.687,0.146C701.102,576.306,712.258,598.551,722.996,620.988z M468.77,531.445
		c-35.141-8.52-77.25-11.519-110.343,0.457c-6.178,2.26-12.826,2.897-18.898,5.495c-35.983,13.968-38.649,48.753-32.36,86.713
		c-5.197-13.794-9.339-28.297-8.928-43.177c0.146-20.82,10.135-41.885,27.78-53.412c9.114-6.523,12.067-1.357,37.219-28.515
		c11.487-12.707,21.94-26.302,31.962-40.181c8.637,2.386,17.221,4.978,25.639,8.04c11.466,3.928,20.811,12.329,97.358,14.079
		c33.205,8.765,56.23,18.859,81.775,24.638c20.435,4.995,52.445,8.343,71.421,18.394c3.653,2.06,6.089,5.468,8.145,8.986
		c0.672,1.15,4.952,10.56,5.536,10.554C627.565,544.074,524.986,543.834,468.77,531.445z M767.313,1622.468
		c-3.321-0.384-6.628-0.888-9.923-1.385c1.578-61.691-1.294-143.002-11.308-204.891c-8.974-55.478-32.088-105.212-58.602-138.401
		c2.526-1.863,4.255-4.527,5.893-7.146C769.67,1341.001,775.01,1519.155,767.313,1622.468z M700.307,1241.619
		c-17.247-1.889-33.778-9.691-46.399-21.562c-6.807-6.43-11.507-14.609-17.028-22.073c-4.773-7.019-10.002-13.734-14.496-20.919
		l-0.544,0.093c0.544-0.305,1.1-0.596,1.657-0.875c-7.057-0.917-17.679-21.319-20.813-27.72
		c-13.956-29.276-23.385-64.375-32.983-82.385c-3.274-6.279-11.859-13.755-18.235-48.964c-4.067-24.537-1.764-23.469-3.036-54.36
		c10.393,8.816,21.516,16.849,30.928,26.766c20.099,21.749,28.52,40.782,52.557,46.956c19.406,32.105,54.53,51.812,94.309,46.85
		c17.102-2.36,53.507-5.924,65.23,7.086c-0.484,3.692-0.809,7.417-1.18,11.136c-13.169-4.751-31.804-9.87-32.665,4.123
		c-0.79,12,10.452,18.48,31.856,3.235c-0.676,5.581-0.915,11.255-2.273,16.737c-3.703,18.527,5.45,35.711,19.262,48.52
		c13.717,13.618,18.97,31.385,28.502,48.732c-24.392-3.444-54.977,2.307-62.241,9.591c-4.817,5.244-38.37,6.111-56.978,7.941
		C710.594,1240.923,705.49,1242.388,700.307,1241.619z M801.861,1267.053c-10.81-2.063,3.97,4.247-67.186-14.808
		c10.062-0.53,20.137-1.399,30.093-3.029c5.84-1.147,12.263-2.194,16.704-6.509c1.737-1.75,4.229-2.327,6.483-3.129
		c17.217-5.18,42.141-6.453,59.072,0.027c1.651,0.477,6.483,3.235,7.523,3.838c2.194,1.571,4.567,3.148,5.906,5.581
		c3.613,5.992,8.544,11.103,14.085,15.338C852.465,1277.612,821.212,1270.343,801.861,1267.053z M1000.017,1293.507
		c-26.006-19.513-38.785-17.677-45.769-18.811c-3.665-0.583-6.668-2.897-9.969-4.388c-7.411-3.4-15.166-6.184-23.266-7.324
		c-4.766-33.359,15.092-35.763,23.484-62.791c4.143-12.057,1.312-26.01-6.841-35.727c-8.868-9.606-14.86,7.261-17.744,19.978
		c-2.777-0.325-4.951-2.254-6.728-4.249c-8.089-9.417-4.646-11.945-12.488-14.715c-8.901-3.024-16.601-0.208-20.972-2.585
		c2.881-7.853,16.322-6.444,0.086-26.938c-4.882-5.542-12.545-12.274-17.751-6.973c-5.873,5.21-11.812,10.864-14.848,18.268
		c-2.061,4.905-1.902,10.91,1.286,15.312c7.157,10.178,21.505,12.639,37.146,20.561c10.592,5.277,11.015,9.95,10.161,22.245
		c-1.748,19.417-5.726,52.185-5.747,52.49c-8.14-3.447-14.954-9.757-19.249-17.453c-2.976-3.831-6.841-6.907-10.99-9.373
		c-1.783-1.087-3.864-1.803-5.177-3.487c-15.535-17.006-18.392-43.196-39.479-63.295c-10.421-10.312-18.196-22.843-14.682-37.113
		c1.797-6.897,15.954-143.075,12.11-179.497c-5.68-39.201-11.369-102.563-14.47-132.946c10.579,23.219,21.436,46.319,33.063,69.028
		c29.356,55.99,17.515,32.332,98.359,143.591c52.293,72.406,160.886,225.554,202.544,304.721
		c-24.09-25.923-123.593-187.142-128.531-162.191c-2.42,8.955,4.005,11.147-0.762,30.709c21.991,17.151,30.755,23.965,83.425,81.006
		c50.726,55.592,46.285,50.553,52.079,63.202C1074.763,1311.749,1017.867,1309.046,1000.017,1293.507z M1159.43,1354.925
		c-18.31-64.435-210.557-329.076-251.343-384.329c-16.684-22.562-35.886-47.585-35.886-47.585
		c-28.633-42.646-77.674-153.923-78.699-160.388c-3.553-17.671-4.753-35.747-4.428-53.75c9.89,27.316,20.21,54.486,31.578,81.225
		c27.398,63.548,29.341,67.583,192.27,283.643c24.094,32.054,29.274,38.11,67,96.841c29.495,46.298,99.177,158.256,114.672,211.552
		C1182.941,1372.974,1171.149,1364,1159.43,1354.925z M1198.332,1384.919c-17.592-57.865-78.944-157.1-111.337-208.298
		c-47.734-74.711-48.876-73.661-96.941-137.679c-45.184-59.897-109.846-145.549-136.333-187.836
		c-23.087-37.983-49.279-106.992-64.15-148.98c-0.166-5.985,0.994-11.978,1.399-17.956c10.791,26.805,22.252,53.345,34.209,79.647
		c40.64,88.367,44.554,82.986,91.214,147.23c56.009,77.704,170.386,244.143,179.557,260.112
		c33.659,56.723,94.615,162.718,116.508,224.922C1207.771,1392.336,1202.919,1388.777,1198.332,1384.919z M1199.062,1285.851
		c-12.479,20.892-3.795,63.796,47.817,100.116c20.964,15.821,38.326,39.208,37.842,64.793
		c-31.808-19.012-35.608-24.529-48.759-36.019c-6.357-5.528-13.283-10.367-19.7-15.802
		c-15.946-47.787-54.485-117.894-79.031-161.945C1156.769,1262.504,1209.534,1268.595,1199.062,1285.851z M1132.711,1228.959
		c-6.534-11.355-36.269-63.4-43.317-73.324c-43.88-64.562-159.763-234.811-207.887-295.746
		c-33.68-39.678-89.517-179.95-89.921-181.473c2.051-30.195,20.14-76.731,7.165-144.559c-0.133,6.02,2.319,30.079-4.282,67.312
		c-17.835-12.591-94.554-67.255-109.004-83.452c-12.108-11.766-46.145-17.99-62.035-20.84
		c-42.552-7.783-51.247-14.638-97.703-27.713c-2.061-0.524-4.057-1.392-6.191-1.531c-17.797-0.186-35.601-1.021-53.292-3.029
		c-26.837-3.283-31.538-6.817-37.914-9.141c-29.322-10.966-67.358-19.808-100.42-21.131c-42.334-1.62-82.268,9.097-95.741,49.09
		c-3.573,6.257-4.839,13.469-5.396,20.562c-21.65-19.595,34.286-72.651,56.971-91.678c24.43-5.114,73.793,4.108,100.195-0.47
		c16.653-2.713,38.107,6.434,60.073,13.588c63.356,21.325,70.917,7.177,111.854,18.049c23.838,6.274,41.196,16.95,84.201,25.181
		c49.1,9.802,94.218,33.076,113.638,45.763c12.853,19.898,25.612,39.883,38.909,59.497c-4.86-24.764-26.683-120.761-46.22-151.492
		c-5.106-7.884-8.807-9.115-28.429-24.664c-2.651-2.413-6.078-4.713-6.814-8.451c0.955-7.318,20.345-8.134,34.077-19.435
		c11.675-9.248,3.75-24.044-5.157-29.291c-23.061-13.954-73.641,0.494-62.546,35.621c8.5,27.297,39.373,78.604,54.373,103.079
		c-34.537-16.863-101.551-27.051-128.79-35.615c-24.749-9.218-57.586-21.681-84.406-25.977c-26.725-3.355-13.735,4.812-36.059,0.411
		c-25.19-5.811-53.996-21.251-79.872-23.975c-33.633-3.726-77.344-2.335-93.865-2.923c7.749-5.621,15.285-11.772,23.1-17.413
		c13.197-9.777,26.938-18.845,39.472-29.497c68.496-58.549,164.514-82.436,254.717-88.953c17.413-1.2,34.872-1.936,52.331-1.783
		c-3.32,8.981-15.596,14.614-18.838,18.228c-39.061,39.305-24.059,40.825,0.033,28.052c2.91-1.538,5.482-4.103,8.955-4.236
		c11.394-0.834,21.078,14.871,25.824,19.514c3.619,3.639,7.324,7.212,11.123,10.672c20.722,11.844,44.973,11.643,62.884,1.027
		c42.551,32.16,95.021,150.919,104.749,167.48C1010.452,724.684,1105.774,1150.358,1132.711,1228.959z M287.41,408.951
		c6.005-4.898,11.905-9.916,17.97-14.728c5.3-0.299,82.649-1.402,108.746,4.521c33.244,7.863,69.626,29.155,87.402,21.529
		c12.977-3.73,45.998,6.878,58.887,10.983c55.274,17.919,19.891,10.594,80.953,24.539c27.119,6.053,66.77,14.633,90.677,26.56
		c3.665,2.195-0.356-3.136,18.301,26.673c-35.694-20.919-74.716-36.615-115.487-44.139c-40.023-8.298-57.233-18.999-80.973-24.677
		c-36.123-8.814-45.864,1.169-92.831-12.316c-27.639-7.865-50.079-18.692-70.029-19.229c-5.846-0.172-11.533,1.491-17.366,1.637
		C344.898,411.623,316.144,406.042,287.41,408.951z M863.553,295.336c-20.333-14.681-42.019-27.588-64.894-37.904
		c-92.112-41.538-221.285-12.391-233.532-8.405c-77.009,12.611-145.892,37.63-204.082,86.58
		c-17.496,14.664-128.968,87.697-149.351,141.583c-6.838,18.304-2.307,34.169,15.577,43.224c0.776,8.59,2.453,17.088,4.487,25.466
		c-12.461,25.473-22.265,52.166-30.902,79.143c-25.88,82.176-35.556,157.992-36.237,237.012
		c-1.955,31.293,4.308,62.817,16.757,91.519c10.811,22.073,22.623,43.761,36.874,63.832c19.038,26.216,20.507,12.932,61.823,108.129
		C150.104,1023.223,67.047,868.688,53.4,699.641C31.603,431.891,183.787,192.322,409.903,95.733
		c80.151-34.421,168.441-49.601,255.486-44.105c346.336,21.075,601.732,355.639,533.614,712.833
		c-26.715-39.328-107.843-169.205-113.671-183.196c-1.389-3.191-2.808-6.369-4.254-9.534
		c-18.595-40.688-41.75-79.219-67.732-115.599c-22.235-31.133-46.586-60.755-72.57-88.829c-6.662-7.197-13.425-14.301-20.304-21.29
		C902.58,327.833,884.257,310.284,863.553,295.336z"/>
	<path d="M613.123,279.664c-7.381,4.469-168.304,95.861-180.671,102.886c3.712-4.428,8.04-8.286,12.163-12.316
		C497.839,319.698,564.918,288.625,613.123,279.664z"/>
	<path d="M630.722,314.921c-11.149,39.671-22.431,79.302-33.706,118.94C585.696,400.838,614.396,340.971,630.722,314.921z"/>
	<path d="M773.617,355.991c0.988,15.192,4.202,30.179,8.213,44.841c1.922,7.881,5.959,14.98,9.485,22.218
		c23.322,45.771,84.915,161.11,111.225,202.418c32.462,47.618,57.846,177.82,60.802,188.181
		c12.935,48.614,39.274,140.527,57.965,193.762c-18.779-43.851-58.909-176.558-65.575-204.506
		c-8.978-43.06-25.542-104.554-42.919-146.461c-11.749-27.516-6.634-10.939-48.752-87.223
		c-20.653-37.477-59.601-112.251-77.254-150.332c-2.714-6.139-7.064-13.149-11.381-41.401
		C774.498,370.361,773.279,363.196,773.617,355.991z"/>
	<path d="M946.744,420.856c22.718,30.319,69.507,99.399,127.113,198.965c95.512,167.785,98.123,203.378,167.719,308.791
		c24.074,35.691,29.745,37.067,39.817,49.706c30.724,37.725,44.587,93.739,61.021,123.607
		c-15.156-23.067-28.538-68.681-55.36-108.043c-14.869-21.09-21.427-22.731-35.674-41.308
		c-84.811-107.603-117.159-236.293-282.96-497.761C961.261,443.453,953.936,432.197,946.744,420.856z"/>
	<path d="M926.939,424.992c88.718,81.035,227.728,395.366,238.59,411.359c9.955,17.526,31.381,76.907,52.563,102.495
		c2.207,2.837,5.044,5.057,7.722,7.43c23.68,25.438,74.438,173.019,83.339,218.983c3.439,16.627-1.165,30.609,0.292,37.444
		c1.233,5.932,4.594,11.103,7.735,16.187c13.562,20.597,39.095,58.409,67.292,57.402c-0.192,15.497-0.954,30.988-1.167,46.492
		c-8.266-1.889-16.465-4.11-24.797-5.661c-6.025-0.888-11.514,4.222-12.362,9.969c-0.04,48.454,19.403,78.165,38.325,89.596
		c0.007,12.468-0.013,24.943,0.007,37.417c-4.203,4.58-8.259,9.306-12.528,13.827c-1.969,1.962-5.25,1.465-7.066-0.424
		c-13.946-12.795-26.945-60.053-65.999-85.095c-40.654-27.913-7.615-99.305-34.116-130.295
		c-23.816-28.536-10.459-66.707-19.269-89.45c-1.578-4.342-4.905-7.769-6.416-12.137c-5.402-13.681-3.38-28.714-5.979-42.926
		c-2.949-15.2-11.293-14.604-15.948-17.307c-29.32-16.229-33.879-126.936-72.177-182.447c-8.563-12.149-19.98-22.623-34.905-22.557
		c-25.663,0-42.129-93.499-54.724-123.66c-11.481-22.636-12.361-64.747-25.884-98.902c-9.416-23.051-15.168-16.916-29.569-49.17
		c-8.463-19.016-14.47-41.518-14.483-44.503c1.984-39.509-21.106-85.902-42.057-119.663
		C938.2,441.046,932.599,432.993,926.939,424.992z"/>
	<path d="M309.085,468.76c-34.643,47.342-30.587,106.732-31.969,120.836C260.753,529.686,289.842,479.756,309.085,468.76z"/>
	<path d="M567.858,604.377c0.126,0.139,0.378,0.411,0.497,0.55c-14.112,4.938-28.257,9.876-41.865,16.114
		c-26.734,11.484-42.624,41.191-51.887,47.612c-9.605,7.039-22.119,8.696-33.706,7.649c-13.703-0.559,53.36-50.29,67.491-59.404
		C524.055,607.688,554.111,603.215,567.858,604.377z"/>
	<path d="M524.236,663.92c17.741-12.772,43.31-12.056,63.54-5.687c-28.039-1.568-51.761-1.483-70.659,19.143
		c-5.173,5.519-14.566,19.773-33.44,18.016C510.146,689.488,505.818,676.73,524.236,663.92z"/>
	<path d="M546.302,699.853c15.318-8.06,29.689-17.758,44.815-26.149c-7.152,8.928-15.935,16.432-25.029,23.319
		c0.603,3.162,0.762,6.396,0.782,9.618c0.998-1.001,21.64-21.742,23.266-23.12c-7.202,14.877-23.01,34.606-38.531,39.731
		c-5.528,1.843-11.089,3.646-16.816,4.772c2.307-1.597,4.726-3.042,7.198-4.362c-5.27-1.452-9.353-5.455-12.362-9.85
		c-7.55,0.113-15.219,2.406-21.032,7.331c-2.472,1.975-4.421,4.481-6.337,6.973c2.021-9.951,10.621-18.994,25.884-21.443
		C534.59,705.659,540.529,702.769,546.302,699.853 M532.694,713.461c3.235,3.944,7.682,8.471,13.25,7.689
		c6.761-2.519,12.594-6.993,17.87-11.825c0.809-3.447,0.265-7.092-0.152-10.566C554.23,705.228,544.055,711.22,532.694,713.461z"/>
	<path d="M502.369,698.03c2.97,5.17,3.361,11.275,4.368,17.028C502.057,710.916,501.594,703.836,502.369,698.03z"/>
	<path d="M579.146,719.552c5.773-5.104,9.77-11.812,13.177-18.626c-6.436,29.631-38.762,36.246-49.925,33.414
		C555.701,733.306,569.21,728.706,579.146,719.552z"/>
	<path d="M498.173,748.015c-4.183-2.194-7.059-8.14-4.209-12.395C495.111,739.842,497.418,743.673,498.173,748.015z"/>
	<path d="M328.101,756.546c27.899,56.625,60.723,121.653,99.042,171.961c43.373,55.76,5.685,100.267,35.813,157.862
		c10.353,20.21,24.423,30.003,43.396,68.432c18.53,38.248,21.362,70.797,40.122,98.432c2.366,4.004,5.647,7.358,8.18,11.248
		c-27.238-27.351-32.059-63.543-50.27-100.387c-18.065-38.139-37.603-53.575-48.951-75.73c-15.029-28.193-13.987-53.53-13.35-85.175
		c-0.043-34.485-6.552-50.999-23.73-73.993C381.556,879.569,342.802,795.602,328.101,756.546z"/>
	<path d="M308.939,763.717c12.419,88.815,24.707,219.475,23.18,308.559c-0.473,18.206-7.601,96.356,31.803,119.875
		c-17.38-7.209-27.44-28.979-32.777-47.022c-8.813-32.599-4.869-56.89-6.582-104.921c-2.234-65.034-5.915-112.422-14.218-249.109
		C309.847,781.979,309.091,772.858,308.939,763.717z"/>
	<path d="M447.89,798.364c-3.968,6.801-14.86,16.037-22.093,13.091C432.766,810.351,439.701,803.094,447.89,798.364z"/>
	<path d="M544.678,832.01c14.045,6.522,21.804,27.639,10.645,34.812C559.363,854.311,551.061,845.258,544.678,832.01z"/>
	<path d="M542.656,866.962c2.93-0.02,5.893-0.02,8.763,0.656c-15.301-1.213-21.997,18.062-31.816,19.09
		c-1.591-0.292-1.863-2.134-1.81-3.447C518.28,870.549,529.991,866.936,542.656,866.962z"/>
	<path d="M820.606,885.289c3.606,24.711,7.364,49.421,12.587,73.854c7.764,34.718,11.548,41.428,18.705,45.007
		c3.799,2.026,10.256,0.226,15.583,12.302c6.724,15.801,9.058,84.351,37.152,92.175c30.614,8.423,27.899-2.244,28.091-8.18
		c3.917,15.573-13.182,14.356-28.966,10.917c-26.891-6.259-33.575-58.468-38.69-83.538c-1.134-5.369-2.545-11.089-6.536-15.099
		c-1.312-1.385-3.175-1.922-4.971-2.267c-6.721-1.591-12.183-6.88-14.841-13.144C826.576,966.666,821.172,906.058,820.606,885.289z"
		/>
	<path d="M543.923,899.355c5.833,2.022,11.361,8.71,8.803,15.073C551.234,908.648,546.866,904.366,543.923,899.355z"/>
	<path d="M814.415,911.465c2.534,23.91,6.388,76.42,12.501,87.773c9.429,14.514-15.975,80.099-7.629,123.361
		c3.136,16.727,13.078,23.207,20.449,44.821c2.035,5.939,2.605,12.282,4.932,18.142c2.598,6.708,5.859,13.138,8.948,19.627
		c7.408,14.427,14.023,26.821,21.914,29.821c-5.846-1.16-9.744-6.118-13.35-10.44c-8.462-10.946-22.49-33.68-25.891-47.738
		c-3.341-13.588-11.62-25.128-18.685-36.967c-19.145-33.112,1.658-99.53,4.633-128.671c0.434-12.03-0.929-2.886-4.176-19.322
		C814.361,971.078,813.544,931.671,814.415,911.465z"/>
	<path d="M617.604,919.704c-6.041,13.914-18.007,32.992-31.565,39.426c-10.016,4.707-20.502-0.065-26.063-9.803
		C581.546,972.809,598.671,947.394,617.604,919.704z"/>
	<path d="M596.937,968.535c0.762-6.814,6.695-14.125,14.125-13.204C605.09,958.208,601.351,963.856,596.937,968.535z"/>
	<path d="M868.947,958.116c12.428,17.638,121.331,174.275,135.684,195.034C960.156,1124.487,892.679,1005.513,868.947,958.116z"/>
	<path d="M567.964,1001.989c-13.961,27.002,7.943,45.164,16.763,70.042c1.975,4.806,2.81,10.016,4.958,14.755
		c1.922,3.102,4.202,5.985,5.932,9.227c2.777,4.547,5.389,9.764,10.294,12.355c3.208,1.724,6.761,0.02,9.598-1.624
		c-12.179,12.388-21.782-7.83-28.118-15.007c-3.062-3.506-4.123-8.14-5.707-12.389c-3.46-10.407-8.537-20.164-13.84-29.728
		C556.23,1028.451,559.649,1011.057,567.964,1001.989z"/>
	<path d="M622.105,1039.546c24.207,28.129,14.805,59.908,14.337,70.997c-0.298,2.194,1.273,4.01,1.704,6.091
		c-0.424-0.504-0.802-1.027-1.114-1.571c-1.962-6.304-4.236-12.541-5.555-19.024
		C627.508,1078.859,627.832,1051.844,622.105,1039.546z"/>
	<path d="M657.209,1083.3c5.859-2.744,12.614-1.836,18.652-0.199c26.69,7.212,31.116,24.493,69.612,14.51
		c-10.029,5.747-21.927,8.458-33.447,7.145c-13.453-1.475-37.738-19.004-51.092-14.297c-7.391,2.889-7.591,18.553-4.136,25.877
		c6.055,12.792,24.168,13.546,36.026,14.344c-10.791,2.307-22.755,2.976-32.751-2.459c-11.339-6.297-14.462-19.366-12.21-31.876
		C648.897,1090.949,652.039,1085.606,657.209,1083.3z"/>
	<path d="M627.726,1119.597c9.193,14.146,23.526,33.791,39.877,29.589c5.932-1.617,12.163-2.897,17.3-6.456
		c5.409-3.593,12.17-3.255,18.188-5.077c12.29-3.583,13.573-12.756,38.385-11.421c4.56,0.292,9.147,1.299,13.118,3.659
		c2.784,1.724,6.098,0.597,9.041-0.007c-2.903,1.518-6.37,2.89-9.605,1.531c-9.064-3.923-25.338-2.168-33.487,2.499
		c-5.362,3.036-10.161,7.258-16.213,8.922c-5.628,1.796-11.958,1.525-17.035,4.852c-5.581,3.573-12.143,5.064-18.54,6.43
		C650.012,1158.233,634.496,1137.536,627.726,1119.597z"/>
	<path d="M772.715,1133.616c-12.09,25.801-54.406,44.211-69.095,33.44c-11.101-8.74-32.317,0.261-58.231,0.862
		c-19.609,0.687-31.084-13.384-32.506-29.463c2.472,9.154,7.855,18.082,16.498,22.537c12.844,6.379,28.223,0.123,53.75-2.744
		c29.382-3.151,16.918,12.031,44.755,5.104C744.703,1158.841,761.328,1148.917,772.715,1133.616z"/>
	<path d="M742.457,1172.545c13.621-6.993,25.367-16.956,37.669-25.937c-6.461,10.017-21.013,23.828-34.448,30.404
		c-4.706,2.353-10.168,3.447-14.026,7.258c-3.215,2.903-5.23,8.034-2.943,12.077c0.921,1.776,2.983,2.161,4.825,2.161
		c-1.452,0.471-3.109,0.915-4.547,0.186c-5.05-2.291-6.565-12.324,1.14-19.269C733.588,1176.104,738.208,1174.547,742.457,1172.545z
		"/>
	<path d="M795.902,1166.758c-1.842,10.607-11.694,44.222-23.093,48.765c-11.242,4.592-20.43,15.492-41.898,11.076
		c-20.707-4.099-38.398,11.667-47.97,2.26c9.306,4.807,16.814-2.541,30.663-6.052c16.552-4.557,24.189,2.935,38.418-2.784
		c5.13-1.882,9.664-4.984,14.503-7.457C773.192,1208.836,774.978,1215.62,795.902,1166.758z"/>
	<path d="M784.812,1173.453c-6.655,3.791-12.057,9.339-17.757,14.377c-15.857,14.064-21.436,23.286-46.213,24.2
		c-10.727,0.101-29.575,7.996-34.01-2.32c-1.947-3.678,3.119-10.675-26.288-15.305c-13.767-1.107-25.473-9.22-36.854-16.299
		c0.371-0.364,0.742-0.709,1.127-1.041c36.848,17.461,37.47,7.297,57.767,15.557c11.071,4.625,10.684,10.904,11.48,13.8
		c4.422,1.945,15.458-1.818,24.207-2.128c6.814-0.265,13.82-0.219,20.29-2.678C749.555,1198.177,771.265,1176.765,784.812,1173.453z
		"/>
	<path d="M318.716,1228.701c-2.651,9.823-6.913,19.15-11.732,28.085c-12.587,22.293-22.823,26.471-27.369,29.549
		c-14.901,10.839-20.388,50.357-22.537,68.465c14.543,0.756,30.232-3.884,39.731-15.458c3.778-4.123,6.111-9.227,8.59-14.158
		c-4.796,26.145-29.931,39.26-55.904,36.065c1.055-24.497,6.445-70.541,28.171-82.172
		C295.451,1270.148,309.227,1246.424,318.716,1228.701z"/>
	<path d="M345.011,1331.911c-0.345-20.608,1.359-41.169,2.691-61.71c15.393,20.614,60.59,83.424,56.481,108.792
		c-0.431,4.037-5.203,5.508-8.677,5.137c-5.932-0.55-11.089-3.838-15.902-7.086c-16.64-10.752-40.41,29.228-65.88,17.519
		c-28.021-13.076-83.033-13.747-71.971,21.536c6.302,19.128,1.824,33.032,4.527,40.394c7.843,19.43,129.937-38.81,156.503-27.78
		c-26.931,7.201-106.461,28.157-130.315,40.732c-13.654,9.387-35.657,10.73-50.204,1.949c-21.251-12.657-19.573-44.89-5.376-66.145
		c15.619-23.343,42.569-35.842,58.628-33.036c19.292,1.733,54.742-17.671,66.41-32.983
		C343.459,1337.068,345.017,1334.643,345.011,1331.911z"/>
	<path d="M774.903,1276.849c-19.205-5.069-35.111-3.359-51.794,12.514C733.046,1273.097,755.924,1266.043,774.903,1276.849z"/>
	<path d="M889.057,1275.504c22.522,10.81,42.292,32.403,44.344,34.322c11.952,11.806,25.64,30.876,26.394,31.876
		c21.081,27.728,46.741,82.071,55.864,113.24c9.193,30.19,5.682,15.238,16.094,59.225c1.85,7.177,6.97,38.865,8.126,47.698
		c-8.78-30.984-18.263-76.363-45.802-141.808c-19.433-42.436-26.946-55.008-47.884-85.911
		C929.955,1312.159,911.76,1291.047,889.057,1275.504z"/>
	<path d="M764.761,1282.656c27.608-1.172,64.57,9.619,90.69,18.904c96.817,36.1,117.267,216.751,116.402,319.887
		c-25.705,0.298-51.403,0.755-77.115,0.802c3.929-56.096,4.136-147.271-13.688-203.161c-28.659-88.47-103.854-57.429-147.204-113.24
		C733.073,1295.409,740.022,1284.219,764.761,1282.656z"/>
	<path d="M860.051,1290.743c20.84,7.596,54.128,32.837,79.66,76.392c38.423,65.355,48.231,149.208,44.265,224.637
		c-0.252,10.519-1.79,20.953-2.068,31.465c-0.643-3.38-0.338-6.814-0.278-10.214c0.981-35.813-0.133-71.746-4.534-107.327
		C961.221,1380.428,906.13,1313.448,860.051,1290.743z"/>
	<path d="M967.982,1304.669c72.988,54.884,166.261,172.299,153.958,296.602c-0.47-9.784,2.584-55.876-23.14-118.808
		C1056.843,1379.894,971.512,1308.609,967.982,1304.669z"/>
	<path d="M1068.72,1338.315c32.018,28.645,76.371,96.361,91.147,185.96c5.548,32.93,6.635,66.49,4.693,99.791
		c-10.095,0.782-20.217,1.127-30.305,1.909c10.765-65.233,3.738-153.323-29.178-226.161
		C1095.294,1378.039,1082.958,1357.464,1068.72,1338.315z"/>
	<path d="M1143.834,1371.888c76.591,68.901,114.2,169.566,113.538,252.251c-13.35-0.53-26.679-1.286-40.029-1.704
		C1224.832,1541.917,1182.715,1439.052,1143.834,1371.888z"/>
	<path d="M371.193,1451.939c-30.985,14.261-94.638,45.394-102.933,78.215c-8.219,26.288-19.401,51.529-30.888,76.525
		c-1.889,4.262-4.216,8.352-5.707,12.8c-0.345,0.875-0.888,1.637-1.637,2.28c6.524-11.376,7.93-54.572,16.492-92.155
		c4.526-17.374,5.562-19.033,19.057-27.912C296.423,1482.401,368.772,1452.354,371.193,1451.939z"/>
</g>
</svg>
