<svg xmlns="http://www.w3.org/2000/svg" data-name="OUTLINE expanded" viewBox="0 0 128 160" x="0px" y="0px"><defs><style>
      .cls-1 {
        stroke-width: 0px;
      }
    </style></defs><path class="cls-1" d="m67.88,48.19c-.43-.19-.93-.05-1.21.32-4.59,6.23-10.75,7.32-11.35,7.41,0,0,0,0,0,0-8.96.56-13.98-1.68-16.62-3.67,8.97-1.16,9.65-7.18,9.68-7.54v-11.15c1.26-1.31,5.38-6.33,1.08-12.35-.27-2.97-2.35-8.15-8.63-8.36-6.1-.19-8.6,4.05-9.46,6.15-2.92-1.13-7.94-1.79-11.32,1.98-3.58,3.98-2.03,8.47-.44,10.73-.77,1.61-1.38,4.05-.72,6.34-4.19-.82-7.8.26-9.95,3.01-1.69,2.18-2.18,5.09-1.18,7.08.4.79,1.01,1.37,1.75,1.69-1.1,2.23-3.05,7.02-1.43,10.23.75,1.48,2.1,2.43,4.03,2.84-.31,2.03-.69,6.5,1.41,8.93.95,1.1,2.25,1.65,3.87,1.65.19,0,.38,0,.58-.02.27-.02.53-.08.8-.14-.25,13.63-1.13,28.91-2.73,47.15-.02.28.07.56.26.76.19.21.46.32.74.32h35.46c.54,0,.98-.43,1-.97.44-14.22-.69-29.23-3.46-45.83h5.35c.55,0,1-.45,1-1v-8.79c3.42-.21,8.64-1.41,11.44-6.37,1.92-3.4,2.55-6.16,1.87-8.2-.53-1.6-1.68-2.14-1.81-2.2Zm-31.27,2.22c-1.71-1.45-3.88-2.24-6.09-2.28-1.16-1.39-1.64-2.9-1.64-2.92-.14-.49-.64-.79-1.13-.7-.02,0-2.16.34-3.46-.75-.71-.6-1.07-1.57-1.07-2.89,0-.52.45-1.3,1.19-1.64.84-.39,1.83-.12,2.86.76.09.08.2.14.32.18.1.03,2.46.84,4.27-.52,1.16-.87,1.76-2.35,1.81-4.41,1.26-.28,3.53-1.01,4.71-2.81,1.67,1.37,4.51,2.71,7.99,1.99v10.17c0,.05-.62,5.41-9.76,5.8Zm-15.09-28.1c3.76-4.18,9.72-1.2,9.97-1.07.27.14.6.15.88.02.28-.13.48-.38.55-.68.06-.24,1.42-5.95,7.83-5.73,6.28.21,6.71,6.51,6.72,6.77,0,.2.08.39.2.55,3.85,5.14,0,9.29-.81,10.08-4.91,1.59-7.91-1.99-8.03-2.14-.24-.3-.63-.44-1-.35-.37.09-.67.38-.75.75-.56,2.47-4.48,2.92-4.52,2.93-.53.06-.92.51-.89,1.04.06,1.25-.06,2.89-.99,3.59-.77.58-1.87.38-2.27.28-2.15-1.73-3.94-1.32-4.83-.91-.7.32-1.29.86-1.71,1.5-.15-.06-.29-.12-.44-.18-1.92-2.78.12-6.47.22-6.65.21-.37.17-.82-.1-1.14-.15-.18-3.73-4.52-.02-8.65Zm-3.72,49.14c-1.24.1-2.15-.21-2.78-.94-1.69-1.95-1.16-6.49-.79-8.16,1.54-4.5,3.43-8.03,5.8-10.78.36-.42.31-1.05-.11-1.41-.42-.36-1.05-.31-1.41.11-2.4,2.79-4.33,6.3-5.9,10.68-1.37-.27-2.28-.86-2.75-1.8-1.34-2.66.92-7.64,1.97-9.45.13-.14.26-.29.37-.43.48-.57.71-.83,1.17-.88.55-.06.95-.55.89-1.1-.06-.55-.55-.95-1.1-.89-1.29.14-1.96.94-2.5,1.59-.02.02-.04.05-.06.07-.48-.09-.82-.35-1.06-.82-.55-1.09-.4-3.2.97-4.95,1.01-1.3,3.43-3.31,8.34-2.22.45.1.9.23,1.35.37.31.36.67.69,1.08,1.01.11,1.66.68,2.97,1.74,3.86,1.38,1.16,3.2,1.3,4.24,1.26.2.47.52,1.11.96,1.79-.48.11-.96.26-1.43.45-7.46,3.04-7.96,12.49-7.98,12.94.03,3.08.02,6.24-.02,9.49-.33.11-.67.19-.99.21Zm36.58,1.28h-5.54s-.01,0-.02,0c0,0-.01,0-.02,0-14.6.54-19.82-7.18-20.04-7.53-.3-.46-.92-.6-1.38-.3-.46.3-.6.92-.3,1.38.23.36,5.62,8.47,20.24,8.47.22,0,.45,0,.67-.01,2.72,16.22,3.88,30.9,3.52,44.79H18.11c1.59-18.43,2.46-33.85,2.66-47.59,0-.02,0-.04,0-.07.05-3.47.06-6.83.03-10.11,0-.09.45-8.56,6.74-11.12,2.84-1.16,6.18-.45,8.32,1.75h0c2.71,2.8,8.11,5.99,18.52,5.56v14.77Zm11.7-15.14c-2.31,4.1-6.73,5.14-9.7,5.35v-5.19c2-.45,7.03-2.02,11.22-7.17.08.14.16.31.22.51.31,1.02.25,2.98-1.74,6.51Z"/><path class="cls-1" d="m42.39,36.15c-2.52-.79-4.73.02-6.37,2.36-.32.45-.21,1.08.24,1.39.17.12.38.18.57.18.31,0,.62-.15.82-.43,1.14-1.62,2.45-2.13,4.13-1.6.53.17,1.09-.13,1.25-.65.17-.53-.13-1.09-.65-1.25Z"/><path class="cls-1" d="m19.42,17.08c.35,0,.73-.02,1.14-.05,2.15-.17,4.87-.79,7.64-1.74,2.77-.95,5.3-2.12,7.1-3.31,2.25-1.48,3.14-2.79,2.73-4-1.18-3.43-11.12-.14-12.25.25-2.77.95-5.3,2.12-7.1,3.31-2.25,1.48-3.14,2.79-2.73,4,.35,1.03,1.49,1.54,3.47,1.54Zm7.01-6.95c5.22-1.79,8.85-1.9,9.66-1.48-.38.84-3.32,2.97-8.54,4.75-5.22,1.79-8.85,1.91-9.66,1.48.38-.84,3.32-2.97,8.54-4.75Z"/><path class="cls-1" d="m118.42,105.27s-.09-.09-.14-.13c-9.76-7.31-9.72-26.37-9.72-26.6-.03-1.04-.86-25.45-17.21-26.79-5.73-.47-10.14.67-13.09,3.39-3.59,3.31-3.63,7.71-3.63,7.89v7.82c0,.47.33.88.79.98l3.25.69v2.97c0,.08.01.17.03.25.04.17,1.07,3.97,4.56,5.63l1.62,9.27c-2.54,4.81-4.73,9.76-6.92,14.81-3.24,2.19-4.66,5.87-3.62,9.46,1.17,4.03,5,6.64,9.76,6.64h30.27c.38,0,.73-.22.9-.56.17-.35.12-.76-.12-1.06-.32-.41-.66-.81-1-1.21,4.15-1.31,5.72-3.59,6.29-5.37.96-2.99-.32-6.22-2.02-8.09Zm-33.91-25.53s0,0,0,0c0,0,0,0,0,0-2.65-1.01-3.65-3.81-3.84-4.39v-8.11c3.6-.26,6.43.54,8.44,2.4,2.97,2.74,3.4,7.1,3.45,8.63-3.23,1.78-5.94,2.28-8.06,1.47Zm5.89,1.7c-1.33,1.91-2.65,4.02-3.98,6.37l-1.01-5.79c1.52.23,3.18.03,4.99-.59Zm-3.59,9.82s0,0,0,0c2.03-3.81,4.01-7.02,6.02-9.77l1.92,19.46c.15,1.55.07,3.1-.23,4.61l-.34,1.72s0,0,0,0l-.92,4.61-6.25-.54-1.4-1.11s0,0,0-.01l-5.61-4.43c2.16-4.98,4.32-9.83,6.82-14.54Zm-7.76,16.35l4.45,3.51c-.88.92-1.73,1.79-2.14,2.18-.59-.04-1.93-.21-3.22-.38l-.69-2.6,1.59-2.71Zm5.05,11.94c-3.85,0-6.92-2.04-7.83-5.19-.15-.52-.24-1.08-.25-1.67l.37,1.39c.1.39.43.68.83.73,2.7.38,3.84.5,4.39.5.36,0,.47-.05.59-.11.17-.08.35-.18,2.88-2.83l.93.74c.15.12.34.19.53.21l7.44.64s.06,0,.09,0c.47,0,.89-.33.98-.8l1.02-5.08c5.89,2.41,11.24,6.11,15.53,10.78.21.23.42.45.63.69h-28.12Zm34.44-6.8c-.65,2.03-2.69,3.51-5.9,4.32-4.5-4.77-10.06-8.54-16.18-10.99l.03-.14c.34-1.7.42-3.45.25-5.19l-2.16-21.93c.02-.78.02-6.83-4.09-10.64-2.62-2.43-6.3-3.39-10.93-2.84-.5.06-.88.49-.88.99v4.14l-2.04-.43v-7.01s.06-3.75,3.01-6.44c2.53-2.31,6.41-3.26,11.55-2.84,14.56,1.19,15.37,24.61,15.37,24.81,0,.82-.05,20.16,10.44,28.12,1.24,1.41,2.23,3.88,1.53,6.07Z"/><text x="0" y="143" fill="#000000" font-size="5px" font-weight="bold" font-family="'Helvetica Neue', Helvetica, Arial-Unicode, Arial, Sans-serif">Created by Icon From Us</text><text x="0" y="148" fill="#000000" font-size="5px" font-weight="bold" font-family="'Helvetica Neue', Helvetica, Arial-Unicode, Arial, Sans-serif">from the Noun Project</text></svg>